<svg width="10" height="12" viewBox="0 0 10 12" fill="none" xmlns="http://www.w3.org/2000/svg">
<path d="M8.02333 3.08698L7.762 7.84196C7.69521 9.05681 7.66185 9.66426 7.39111 10.101C7.25722 10.3169 7.08491 10.4991 6.88503 10.6361C6.48078 10.9131 5.93969 10.9131 4.85747 10.9131C3.77386 10.9131 3.23204 10.9131 2.82752 10.6355C2.62753 10.4984 2.45514 10.3158 2.32132 10.0995C2.05067 9.66212 2.01802 9.05382 1.95272 7.83727L1.69775 3.08698" stroke="#F2F1FA" stroke-width="1.5" stroke-linecap="round"/>
<path d="M0.906982 3.08697H8.81396M6.64204 3.08697L6.34219 2.38721C6.14298 1.92238 6.04335 1.68996 5.87155 1.54501C5.83347 1.51286 5.7931 1.48426 5.75088 1.45949C5.56063 1.34784 5.3323 1.34784 4.87563 1.34784C4.40749 1.34784 4.17344 1.34784 3.98002 1.46417C3.93716 1.48996 3.89625 1.51972 3.85773 1.55314C3.68393 1.70396 3.58685 1.94488 3.39268 2.42673L3.12661 3.08697" stroke="#F2F1FA" stroke-width="1.5" stroke-linecap="round"/>
</svg>
