<svg width="20" height="19" viewBox="0 0 20 19" fill="none" xmlns="http://www.w3.org/2000/svg">
<path d="M12.0067 2.96632C12.8387 2.23223 13.2546 1.86519 13.7155 1.68967C14.3795 1.43678 15.1321 1.43678 15.7961 1.68967C16.2568 1.86519 16.6729 2.23223 17.5048 2.96632C18.3368 3.7004 18.7529 4.06744 18.9518 4.47407C19.2384 5.05988 19.2384 5.72405 18.9518 6.30986C18.7529 6.71649 18.3368 7.08353 17.5048 7.81761L10.391 14.0946C8.63828 15.6411 7.76193 16.4144 6.6643 16.8725C5.56667 17.3306 4.33332 17.438 1.86666 17.6528L0.75 17.75L0.860188 16.7648C1.10357 14.5883 1.22528 13.5 1.74451 12.5315C2.26371 11.563 3.14006 10.7898 4.89276 9.2433L12.0067 2.96632Z" stroke="white" stroke-width="1.5" stroke-linejoin="round"/>
</svg>
