<svg width="34" height="34" viewBox="0 0 34 34" fill="none" xmlns="http://www.w3.org/2000/svg">
<path d="M12.8373 6.8373L4.58874 14.0552C3.88138 14.6743 4.35565 15.7736 5.33004 15.7736C5.92534 15.7736 6.40792 16.2193 6.40792 16.7692V21.3642C6.40792 25.3172 6.40792 27.2938 7.73749 28.5219C9.06708 29.75 11.207 29.75 15.4869 29.75H18.5131C22.793 29.75 24.9329 29.75 26.2625 28.5219C27.5921 27.2938 27.5921 25.3172 27.5921 21.3642V16.7692C27.5921 16.2193 28.0747 15.7736 28.6699 15.7736C29.6443 15.7736 30.1186 14.6743 29.4113 14.0552L21.1626 6.8373C19.1914 5.11244 18.2059 4.25 17 4.25C15.7941 4.25 14.8086 5.11244 12.8373 6.8373Z" stroke="black" stroke-width="1.5" stroke-linecap="round" stroke-linejoin="round"/>
<path d="M17 22.6666H17.0127" stroke="black" stroke-width="1.5" stroke-linecap="round" stroke-linejoin="round"/>
</svg>
