<svg width="34" height="40" viewBox="0 0 34 40" fill="none" xmlns="http://www.w3.org/2000/svg">
<g filter="url(#filter0_d_126_279)">
<path d="M9.91675 25.5C7.32576 26.0832 5.66675 26.9794 5.66675 27.9844C5.66675 29.7419 10.7409 31.1667 17.0001 31.1667C23.2593 31.1667 28.3334 29.7419 28.3334 27.9844C28.3334 26.9794 26.6744 26.0832 24.0834 25.5" stroke="black" stroke-width="1.5" stroke-linecap="round"/>
<path d="M20.5416 12.75C20.5416 14.706 18.9559 16.2917 16.9999 16.2917C15.0439 16.2917 13.4583 14.706 13.4583 12.75C13.4583 10.794 15.0439 9.20837 16.9999 9.20837C18.9559 9.20837 20.5416 10.794 20.5416 12.75Z" stroke="black" stroke-width="1.5"/>
<path d="M18.7812 24.7826C18.3034 25.2428 17.6648 25.5 17.0002 25.5C16.3355 25.5 15.6969 25.2428 15.219 24.7826C10.8435 20.5428 4.97977 15.8065 7.83934 8.93032C9.38548 5.21241 13.0969 2.83337 17.0002 2.83337C20.9034 2.83337 24.6148 5.21242 26.1609 8.93032C29.0169 15.7979 23.1675 20.5574 18.7812 24.7826Z" stroke="black" stroke-width="1.5"/>
</g>
<defs>
<filter id="filter0_d_126_279" x="-4" y="0" width="42" height="42" filterUnits="userSpaceOnUse" color-interpolation-filters="sRGB">
<feFlood flood-opacity="0" result="BackgroundImageFix"/>
<feColorMatrix in="SourceAlpha" type="matrix" values="0 0 0 0 0 0 0 0 0 0 0 0 0 0 0 0 0 0 127 0" result="hardAlpha"/>
<feOffset dy="4"/>
<feGaussianBlur stdDeviation="2"/>
<feComposite in2="hardAlpha" operator="out"/>
<feColorMatrix type="matrix" values="0 0 0 0 0 0 0 0 0 0 0 0 0 0 0 0 0 0 0.25 0"/>
<feBlend mode="normal" in2="BackgroundImageFix" result="effect1_dropShadow_126_279"/>
<feBlend mode="normal" in="SourceGraphic" in2="effect1_dropShadow_126_279" result="shape"/>
</filter>
</defs>
</svg>
