<svg width="34" height="34" viewBox="0 0 34 34" fill="none" xmlns="http://www.w3.org/2000/svg">
<path d="M4.25 15.5643V21.9487C4.25 25.9614 4.25 27.9678 5.4948 29.2145C6.73959 30.4611 8.74306 30.4611 12.75 30.4611H21.25C25.2569 30.4611 27.2603 30.4611 28.5052 29.2145C29.75 27.9678 29.75 25.9614 29.75 21.9487V15.5643" stroke="black" stroke-width="1.5"/>
<path d="M9.91675 25.4633H15.5834" stroke="black" stroke-width="1.5" stroke-linecap="round"/>
<path d="M25.2105 3.54238L8.71217 3.58354C6.24977 3.45685 5.61842 5.35303 5.61842 6.27997C5.61842 7.10898 5.51153 8.31756 4.00234 10.5891C2.49315 12.8606 2.60655 13.5354 3.45759 15.1079C4.1639 16.4131 5.96041 16.9228 6.89713 17.0087C9.87242 17.0762 11.32 14.5064 11.32 12.7004C12.796 17.2384 16.9935 17.2384 18.864 16.7195C20.7378 16.1996 22.3432 14.3387 22.722 12.7004C22.9428 14.7363 23.6132 15.9245 25.5938 16.7408C27.6455 17.5864 29.4098 16.294 30.295 15.4655C31.1802 14.637 31.7484 12.7977 30.1702 10.7761C29.082 9.382 28.6285 8.06862 28.4794 6.7074C28.3932 5.91867 28.3174 5.07114 27.7625 4.5318C26.9516 3.74361 25.7882 3.50446 25.2105 3.54238Z" stroke="black" stroke-width="1.5" stroke-linecap="round" stroke-linejoin="round"/>
</svg>
