<svg width="34" height="39" viewBox="0 0 34 39" fill="none" xmlns="http://www.w3.org/2000/svg">
<path d="M4 15V20.5714C4 24.0732 4 25.8241 5.2692 26.9121C6.53841 28 8.58116 28 12.6667 28C12.6667 28 12.6667 28 12.6667 28C12.6667 28 19.559 28 21.0647 28M30 20.5714V15" stroke="black" stroke-width="1.5"/>
<path d="M8 21H13.6667" stroke="black" stroke-width="1.5" stroke-linecap="round"/>
<path d="M25.1154 4.00339L8.8071 4.04003C6.37306 3.92723 5.74898 5.61548 5.74898 6.44077C5.74898 7.17887 5.64332 8.25491 4.15152 10.2773C2.65971 12.2997 2.77181 12.9005 3.61304 14.3006C4.31121 15.4627 6.08703 15.9165 7.01296 15.9929C9.95398 16.0531 11.3849 13.7651 11.3849 12.1571C12.8439 16.1975 16.9931 16.1975 18.8419 15.7355C20.6942 15.2726 22.2811 13.6157 22.6555 12.1571C22.8738 13.9698 23.5365 15.0277 25.4943 15.7544C27.5223 16.5073 29.2663 15.3566 30.1414 14.619C31.0163 13.8814 31.578 12.2437 30.018 10.4439C28.9422 9.20262 28.494 8.03327 28.3467 6.82133C28.2614 6.11909 28.1865 5.3645 27.6379 4.88431C26.8364 4.18255 25.6864 3.96963 25.1154 4.00339Z" stroke="black" stroke-width="1.5" stroke-linecap="round" stroke-linejoin="round"/>
<path d="M28.6837 21L29.7154 22.0895C29.9399 22.3426 30.0522 22.4693 30.0127 22.5768C29.9731 22.6843 29.8144 22.6843 29.4968 22.6843H25.6063C23.6146 22.6843 22 24.5046 22 26.75C22 27.2561 22.0821 27.7406 22.2318 28.1875M25.3419 32.5L24.3103 31.4105C24.0857 31.1574 23.9734 31.0307 24.0129 30.9232C24.0525 30.8157 24.2113 30.8157 24.5288 30.8157H28.4193C30.411 30.8157 32.0256 28.9954 32.0256 26.75C32.0256 26.2439 31.9436 25.7594 31.7938 25.3125" stroke="black" stroke-width="1.5" stroke-linecap="round" stroke-linejoin="round"/>
</svg>
