<svg width="34" height="34" viewBox="0 0 34 34" fill="none" xmlns="http://www.w3.org/2000/svg">
<path d="M19.644 29H9.35603C7.55308 29 6.11904 27.966 4.83144 26.5203C2.19559 23.5607 6.52327 21.1955 8.17384 20.0372C12.0444 17.3209 16.9556 17.3209 20.8262 20.0372" stroke="black" stroke-width="1.5" stroke-linecap="round" stroke-linejoin="round"/>
<path d="M20.75 9.375C20.75 12.8958 17.8958 15.75 14.375 15.75C10.8542 15.75 8 12.8958 8 9.375C8 5.85419 10.8542 3 14.375 3C17.8958 3 20.75 5.85419 20.75 9.375Z" stroke="black" stroke-width="1.5"/>
<path d="M27.6666 20L28.6956 21.1369C28.9196 21.401 29.0316 21.5331 28.9923 21.6453C28.9528 21.7575 28.7944 21.7575 28.4776 21.7575H24.5971C22.6105 21.7575 21 23.657 21 26C21 26.5282 21.0819 27.0337 21.2313 27.5M24.3334 32L23.3044 30.8631C23.0804 30.599 22.9684 30.4668 23.0078 30.3546C23.0473 30.2424 23.2056 30.2425 23.5224 30.2425H27.4029C29.3895 30.2425 31 28.343 31 26C31 25.4719 30.9181 24.9664 30.7688 24.5" stroke="black" stroke-width="1.5" stroke-linecap="round" stroke-linejoin="round"/>
</svg>
